<?xml version="1.0" encoding="utf-8"?>
<svg viewBox="703.091 -196.909 1100 800" width="1100" height="800" xmlns="http://www.w3.org/2000/svg">
  <g transform="matrix(0.105894, 0, 0, -0.115606, 796.362317, 606.962717)" fill="#000000" stroke="none" style="">
    <path d="M5448 6952 l-58 -3 0 -2460 c0 -1796 3 -2485 12 -2554 l11 -94 96 -3 c190 -7 718 -9 773 -2 l56 6 7 47 c5 25 9 1174 10 2553 l1 2508 -425 2 c-234 2 -452 2 -483 0z" style="fill: rgb(0, 60, 255);"/>
    <path d="M3152 4401 c2 -1402 6 -2552 9 -2555 8 -9 814 -18 886 -10 l63 6 2 2554 3 2554 -483 0 -483 0 3 -2549z" style="fill: rgb(0, 60, 255);"/>
    <path d="M6676 3933 c-3 -87 -9 -258 -12 -381 -7 -248 -8 -245 61 -272 19 -8 35 -17 35 -22 0 -4 9 -8 20 -8 11 0 20 -4 20 -10 0 -5 9 -10 20 -10 11 0 20 -4 20 -10 0 -5 4 -10 10 -10 5 0 50 -25 100 -55 50 -30 92 -55 95 -55 2 0 38 -24 80 -52 42 -29 85 -58 96 -64 10 -6 27 -18 37 -27 10 -10 24 -17 30 -17 7 0 12 -3 12 -7 0 -5 17 -19 37 -33 45 -30 51 -34 130 -99 34 -28 64 -51 65 -51 23 0 468 -446 468 -470 0 -3 18 -24 40 -48 22 -24 40 -46 40 -51 0 -4 13 -21 30 -37 16 -16 30 -34 30 -39 0 -6 10 -21 23 -35 12 -14 28 -37 36 -52 8 -16 18 -28 23 -28 4 0 8 -5 8 -11 0 -6 14 -30 30 -54 17 -24 30 -46 30 -50 0 -3 12 -24 27 -48 45 -70 60 -97 123 -227 34 -69 70 -142 80 -163 11 -22 20 -43 20 -48 0 -6 9 -29 20 -51 11 -23 20 -48 20 -55 0 -7 5 -22 10 -33 6 -11 15 -29 20 -40 6 -11 10 -27 10 -35 0 -8 5 -25 12 -38 24 -47 28 -57 28 -72 0 -8 6 -24 13 -36 32 -52 282 -49 -3884 -49 -2122 0 -3864 3 -3873 6 -17 7 -22 63 -7 80 5 5 18 38 30 74 12 36 27 75 32 88 5 12 13 32 18 45 4 12 13 33 19 47 6 14 25 61 42 105 18 44 35 84 38 90 4 5 7 12 8 15 2 18 40 90 46 90 5 0 8 9 8 20 0 11 5 20 10 20 6 0 10 9 10 20 0 11 5 20 10 20 6 0 10 9 10 20 0 11 4 20 8 20 5 0 17 17 29 37 32 61 64 116 82 143 20 31 32 50 71 116 16 29 37 57 45 64 8 7 15 18 15 24 0 7 13 25 30 41 16 16 30 34 30 40 0 6 13 24 30 40 16 16 30 32 30 37 0 7 17 27 155 178 84 92 218 223 300 293 39 33 72 64 73 69 2 4 9 8 15 8 7 0 31 18 55 40 24 22 57 47 73 57 16 10 29 21 29 25 0 4 6 8 13 8 8 0 22 9 32 20 10 11 23 20 30 20 7 0 20 9 30 20 10 11 23 20 30 20 7 0 20 9 30 20 10 11 23 20 30 20 7 0 20 9 30 20 9 10 20 19 24 18 12 -2 59 21 67 34 18 27 36 818 19 818 -11 0 -237 -110 -245 -120 -3 -3 -27 -16 -55 -30 -27 -13 -69 -37 -92 -52 -23 -15 -44 -28 -48 -28 -4 0 -25 -12 -48 -27 -23 -16 -50 -32 -59 -38 -9 -5 -36 -24 -59 -40 -24 -17 -51 -34 -59 -38 -40 -20 -260 -187 -260 -198 0 -5 -5 -9 -11 -9 -22 0 -186 -147 -367 -328 -100 -100 -182 -187 -182 -192 0 -6 -13 -22 -28 -37 -33 -33 -142 -168 -142 -176 0 -3 -13 -21 -30 -39 -16 -18 -30 -38 -30 -44 0 -7 -3 -14 -7 -16 -11 -4 -66 -78 -82 -110 -8 -16 -18 -28 -23 -28 -4 0 -8 -4 -8 -9 0 -6 -13 -29 -29 -53 -16 -24 -43 -69 -59 -101 -16 -31 -36 -64 -42 -73 -7 -8 -28 -43 -45 -77 -18 -34 -51 -96 -74 -137 -22 -41 -41 -83 -41 -92 0 -10 -4 -18 -10 -18 -5 0 -10 -9 -10 -20 0 -11 -4 -20 -10 -20 -5 0 -10 -7 -10 -15 0 -8 -4 -23 -10 -33 -5 -9 -16 -35 -25 -57 -9 -22 -25 -57 -36 -78 -10 -22 -19 -45 -19 -53 0 -7 -9 -29 -20 -49 -11 -20 -20 -44 -20 -55 0 -10 -4 -22 -10 -25 -5 -3 -10 -16 -10 -29 0 -12 -4 -26 -9 -32 -23 -23 -147 -432 -162 -534 -5 -36 -14 -92 -20 -125 -25 -151 -29 -206 -23 -292 3 -51 10 -93 15 -93 5 0 9 -9 9 -20 0 -11 6 -23 14 -26 8 -3 12 -12 9 -20 -3 -8 0 -14 6 -14 6 0 11 -6 11 -13 0 -7 9 -19 20 -27 11 -8 20 -19 20 -25 0 -15 53 -65 68 -65 7 0 12 -4 12 -9 0 -13 119 -68 180 -83 85 -20 8578 -19 8665 1 57 13 86 25 162 65 46 24 175 156 169 173 -3 7 1 13 9 13 8 0 15 7 15 15 0 8 5 15 10 15 6 0 10 11 10 24 0 14 4 27 9 30 14 9 34 163 26 199 -4 17 -11 64 -16 102 -13 107 -20 145 -30 151 -5 3 -9 19 -9 36 0 18 -4 45 -10 62 -5 17 -21 78 -35 136 -15 58 -31 113 -36 122 -5 10 -9 25 -9 33 0 8 -4 23 -9 33 -4 9 -19 51 -31 92 -13 41 -27 79 -32 84 -4 6 -8 18 -8 28 0 10 -4 26 -9 36 -9 17 -24 53 -40 95 -4 12 -18 42 -30 65 -11 24 -21 50 -21 57 0 6 -13 39 -29 71 -16 32 -52 107 -80 166 -29 58 -62 121 -74 140 -13 18 -30 48 -38 66 -7 17 -17 32 -21 32 -5 0 -8 6 -8 13 0 6 -18 38 -40 70 -22 31 -40 62 -40 67 0 6 -4 10 -10 10 -5 0 -10 6 -10 14 0 11 -60 98 -79 116 -4 3 -12 17 -20 33 -8 15 -18 27 -23 27 -4 0 -8 6 -8 13 0 6 -18 32 -40 56 -22 24 -40 46 -40 49 0 23 -438 502 -459 502 -4 0 -37 29 -75 65 -38 36 -72 65 -76 65 -4 0 -26 18 -49 40 -23 22 -48 40 -55 40 -8 0 -16 6 -19 14 -8 19 -247 196 -265 196 -5 0 -17 9 -27 20 -10 11 -23 20 -30 20 -7 0 -20 9 -30 20 -10 11 -23 20 -30 20 -7 0 -20 9 -30 20 -10 11 -22 20 -27 20 -5 0 -28 13 -51 28 -23 16 -57 35 -74 43 -18 8 -33 17 -33 20 0 4 -12 12 -27 18 -16 6 -43 20 -60 31 -18 11 -33 17 -33 13 0 -3 -8 1 -18 10 -10 10 -22 14 -25 10 -4 -3 -7 -2 -7 4 0 13 -403 213 -428 213 -6 0 -12 -64 -16 -157z" style="fill: rgb(0, 60, 255);"/>
  </g>
</svg>