<?xml version="1.0" standalone="no"?>
<!DOCTYPE svg PUBLIC "-//W3C//DTD SVG 20010904//EN"
 "http://www.w3.org/TR/2001/REC-SVG-20010904/DTD/svg10.dtd">
<svg version="1.0" xmlns="http://www.w3.org/2000/svg"
 width="244.000000pt" height="138.000000pt" viewBox="0 0 244.000000 138.000000"
 preserveAspectRatio="xMidYMid meet">

<g transform="translate(0.000000,138.000000) scale(0.100000,-0.100000)"
fill="#000000" stroke="none">
<path d="M2323 1363 c9 -2 23 -2 30 0 6 3 -1 5 -18 5 -16 0 -22 -2 -12 -5z"/>
<path d="M2285 1349 c-4 -6 -5 -12 -2 -15 2 -3 7 2 10 11 7 17 1 20 -8 4z"/>
<path d="M2376 1347 c3 -10 9 -15 12 -12 3 3 0 11 -7 18 -10 9 -11 8 -5 -6z"/>
<path d="M2311 1303 c1 -21 3 -30 6 -20 6 21 12 22 27 2 9 -12 11 -9 11 17 0
27 -4 34 -22 36 -21 3 -23 -1 -22 -35z m39 17 c0 -5 -7 -10 -15 -10 -8 0 -15
5 -15 10 0 6 7 10 15 10 8 0 15 -4 15 -10z"/>
<path d="M2271 1304 c0 -11 3 -14 6 -6 3 7 2 16 -1 19 -3 4 -6 -2 -5 -13z"/>
<path d="M2391 1304 c0 -11 3 -14 6 -6 3 7 2 16 -1 19 -3 4 -6 -2 -5 -13z"/>
<path d="M2294 1263 c11 -13 29 -23 41 -23 12 0 30 10 41 23 19 22 19 22 -2 5
-11 -10 -29 -18 -39 -18 -10 0 -28 8 -39 18 -21 17 -21 17 -2 -5z"/>
<path d="M280 695 l0 -366 78 3 77 3 -3 298 c-2 163 -1 297 2 297 2 0 89 -135
191 -300 l187 -300 89 0 c49 0 89 4 89 9 0 5 -49 87 -109 182 -59 96 -159 256
-222 357 l-114 182 -132 0 -133 0 0 -365z"/>
<path d="M1131 1040 c-102 -37 -179 -107 -223 -206 -31 -69 -31 -196 1 -277
30 -77 101 -149 187 -189 58 -27 79 -31 179 -36 62 -2 119 -2 127 0 9 4 12 24
10 77 l-4 71 -104 0 c-145 0 -207 30 -255 122 -40 78 -18 189 48 249 58 52 64
54 165 59 l99 5 40 73 41 72 -129 0 c-101 -1 -139 -5 -182 -20z"/>
<path d="M1472 698 l3 -363 79 -3 79 -3 -7 303 c-6 277 -5 301 10 283 8 -11
95 -147 192 -302 l176 -283 94 0 93 0 -13 23 c-7 13 -109 177 -227 365 l-214
342 -133 0 -134 0 2 -362z"/>
<path d="M30 64 c-11 -26 -18 -50 -14 -53 4 -3 9 0 11 7 6 14 49 16 58 2 3 -6
10 -10 15 -10 13 0 -24 93 -39 98 -6 2 -20 -18 -31 -44z m40 1 c0 -8 -4 -15
-10 -15 -5 0 -10 7 -10 15 0 8 5 15 10 15 6 0 10 -7 10 -15z"/>
<path d="M120 60 c0 -27 5 -50 10 -50 6 0 10 9 10 20 0 27 24 25 43 -3 8 -12
18 -19 22 -15 4 4 2 14 -5 23 -10 12 -10 18 0 30 21 26 4 45 -40 45 l-40 0 0
-50z m65 25 c0 -5 -10 -11 -22 -13 -16 -2 -23 2 -23 13 0 11 7 15 23 13 12 -2
22 -7 22 -13z"/>
<path d="M276 95 c-10 -28 -7 -62 8 -75 18 -14 58 -10 64 7 2 9 -5 11 -27 7
-29 -6 -31 -5 -31 25 0 36 22 50 47 30 14 -12 16 -12 11 1 -7 22 -64 25 -72 5z"/>
<path d="M380 89 c-26 -47 25 -100 69 -72 20 13 26 60 10 79 -18 22 -66 18
-79 -7z m65 -24 c0 -25 -4 -30 -25 -30 -28 0 -39 27 -19 51 20 24 44 13 44
-21z"/>
<path d="M490 60 c0 -27 5 -50 10 -50 6 0 10 15 10 33 l0 32 21 -32 c12 -18
25 -33 30 -33 5 0 9 23 9 50 0 28 -4 50 -10 50 -5 0 -10 -15 -10 -32 l0 -33
-20 33 c-28 45 -40 40 -40 -18z"/>
<path d="M600 60 c0 -48 1 -50 28 -50 35 0 52 16 52 50 0 34 -17 50 -52 50
-27 0 -28 -2 -28 -50z m58 2 c3 -29 1 -32 -22 -32 -22 0 -26 5 -26 28 0 33 8
44 30 40 9 -2 16 -16 18 -36z"/>
<path d="M700 60 c0 -27 5 -50 10 -50 6 0 10 23 10 50 0 28 -4 50 -10 50 -5 0
-10 -22 -10 -50z"/>
<path d="M752 98 c-16 -16 -15 -63 2 -78 18 -14 58 -10 64 7 2 9 -5 11 -27 7
-29 -6 -31 -5 -31 25 0 36 22 50 47 30 14 -12 16 -12 11 1 -6 19 -49 25 -66 8z"/>
<path d="M850 60 c0 -27 5 -50 10 -50 6 0 10 23 10 50 0 28 -4 50 -10 50 -5 0
-10 -22 -10 -50z"/>
<path d="M888 85 c-9 -19 -8 -29 6 -50 29 -44 86 -28 86 25 0 34 -17 50 -52
50 -20 0 -32 -7 -40 -25z m67 -20 c0 -23 -5 -31 -22 -33 -26 -4 -41 31 -22 54
20 24 44 13 44 -21z"/>
<path d="M1000 60 c0 -55 17 -69 22 -17 l3 32 18 -32 c25 -47 37 -41 36 20 -2
47 -2 49 -8 17 l-7 -35 -20 32 c-28 48 -44 42 -44 -17z"/>
<path d="M1117 63 c-9 -25 -14 -49 -11 -52 4 -3 9 0 11 7 6 14 49 16 58 2 3
-5 10 -10 15 -10 5 0 0 23 -12 50 -11 28 -26 50 -32 50 -7 0 -19 -21 -29 -47z
m43 -5 c0 -5 -6 -8 -14 -8 -9 0 -12 7 -9 21 4 16 8 17 14 7 5 -7 9 -16 9 -20z"/>
<path d="M1210 60 c0 -49 1 -50 29 -50 32 0 61 22 61 46 0 34 -20 54 -55 54
l-35 0 0 -50z m63 19 c14 -22 2 -49 -23 -49 -16 0 -20 6 -20 36 0 28 4 35 16
32 9 -2 21 -10 27 -19z"/>
<path d="M1319 84 c-12 -34 11 -74 44 -74 30 0 47 18 47 50 0 34 -17 50 -52
50 -22 0 -31 -6 -39 -26z m66 -19 c0 -23 -5 -31 -22 -33 -26 -4 -41 31 -22 54
20 24 44 13 44 -21z"/>
<path d="M1477 63 c-9 -25 -14 -49 -11 -52 4 -3 9 0 11 7 6 14 49 16 58 2 3
-5 10 -10 15 -10 5 0 0 23 -12 50 -11 28 -26 50 -32 50 -7 0 -19 -21 -29 -47z
m43 -5 c0 -5 -6 -8 -14 -8 -9 0 -12 7 -9 21 4 16 8 17 14 7 5 -7 9 -16 9 -20z"/>
<path d="M1570 71 c0 -44 18 -64 52 -59 20 3 23 10 26 51 2 28 -1 47 -7 47 -6
0 -11 -18 -11 -40 0 -33 -3 -40 -20 -40 -17 0 -20 7 -20 40 0 22 -4 40 -10 40
-5 0 -10 -17 -10 -39z"/>
<path d="M1683 103 c13 -3 17 -15 17 -49 0 -24 5 -44 10 -44 6 0 10 20 10 44
0 34 4 46 18 49 9 3 -3 5 -28 5 -25 0 -37 -2 -27 -5z"/>
<path d="M1772 98 c-28 -28 -2 -88 38 -88 40 0 66 60 38 88 -7 7 -24 12 -38
12 -14 0 -31 -5 -38 -12z m63 -33 c0 -25 -4 -30 -25 -30 -16 0 -26 6 -28 18
-6 30 6 49 30 45 18 -2 23 -9 23 -33z"/>
<path d="M1880 60 c0 -51 19 -72 21 -22 1 27 1 27 8 3 10 -38 28 -35 39 6 l10
38 1 -37 c2 -57 21 -46 21 12 0 60 -22 69 -43 18 l-14 -33 -7 33 c-12 52 -36
41 -36 -18z"/>
<path d="M2007 104 c-11 -12 -8 -69 5 -82 16 -16 53 -15 67 2 7 8 11 30 9 48
-3 30 -6 33 -38 36 -20 2 -39 0 -43 -4z m61 -20 c15 -27 3 -54 -24 -54 -20 0
-24 5 -24 28 0 44 29 59 48 26z"/>
<path d="M2123 103 c13 -3 17 -15 17 -49 0 -24 5 -44 10 -44 6 0 10 20 10 44
0 34 4 46 18 49 9 3 -3 5 -28 5 -25 0 -37 -2 -27 -5z"/>
<path d="M2200 60 c0 -27 5 -50 10 -50 6 0 10 23 10 50 0 28 -4 50 -10 50 -5
0 -10 -22 -10 -50z"/>
<path d="M2240 100 c0 -19 32 -90 41 -90 10 0 24 31 35 75 3 14 2 25 -4 25 -5
0 -13 -16 -16 -35 -8 -41 -21 -38 -31 5 -6 28 -25 43 -25 20z"/>
<path d="M2346 94 c-10 -25 -7 -59 6 -72 37 -37 98 11 79 62 -9 21 -17 26 -45
26 -22 0 -36 -6 -40 -16z m64 -9 c18 -22 3 -55 -26 -55 -20 0 -24 5 -24 28 0
43 25 57 50 27z"/>
</g>
</svg>
