<?xml version="1.0" standalone="no"?>
<!DOCTYPE svg PUBLIC "-//W3C//DTD SVG 20010904//EN"
 "http://www.w3.org/TR/2001/REC-SVG-20010904/DTD/svg10.dtd">
<svg version="1.0" xmlns="http://www.w3.org/2000/svg"
 width="235.000000pt" height="59.000000pt" viewBox="0 0 235.000000 59.000000"
 preserveAspectRatio="xMidYMid meet">

<g transform="translate(0.000000,59.000000) scale(0.100000,-0.100000)"
fill="#000000" stroke="none">
<path d="M255 528 c-7 -18 -24 -60 -37 -93 l-24 -60 -87 -36 c-95 -39 -117
-53 -102 -68 6 -5 50 -25 99 -43 l89 -34 37 -94 c21 -52 42 -96 48 -98 14 -4
21 8 62 107 l35 85 90 35 c54 22 91 42 93 52 2 11 -23 26 -91 54 l-95 38 -37
93 c-40 102 -57 115 -80 62z m69 -89 l32 -83 87 -34 c48 -18 85 -37 82 -41 -2
-4 -42 -22 -87 -40 l-83 -32 -34 -90 c-19 -50 -37 -87 -41 -82 -4 4 -21 44
-38 87 l-32 79 36 64 c31 56 37 62 54 53 32 -17 43 -46 24 -64 -8 -9 -20 -16
-25 -16 -5 0 -9 -4 -9 -10 0 -17 29 -11 50 10 27 27 25 52 -5 83 -47 46 -61
42 -100 -29 -19 -35 -40 -66 -45 -69 -8 -5 -137 41 -153 55 -5 4 32 22 82 41
88 32 90 34 107 79 33 87 55 133 60 127 3 -2 20 -42 38 -88z"/>
<path d="M722 488 c-21 -60 -31 -107 -12 -60 7 17 17 22 45 22 24 0 35 -5 35
-14 0 -8 5 -18 10 -21 6 -4 -1 24 -15 60 -14 37 -25 69 -25 71 0 2 -3 4 -8 4
-4 0 -17 -28 -30 -62z m58 -24 c0 -2 -11 -4 -25 -4 -28 0 -30 6 -14 47 l11 28
14 -34 c8 -18 14 -35 14 -37z"/>
<path d="M930 530 c-26 -26 -26 -81 -2 -103 23 -21 76 -22 96 -1 9 8 16 26 16
40 0 21 -4 24 -32 23 -31 -2 -31 -2 -5 -6 49 -8 29 -63 -24 -63 -35 0 -59 24
-59 59 0 38 31 65 69 59 17 -2 28 -1 25 4 -10 16 -64 8 -84 -12z"/>
<path d="M1162 478 c0 -40 3 -58 5 -40 2 17 10 32 17 32 14 0 40 -27 49 -50 5
-13 6 -13 6 1 1 8 -5 24 -13 34 -11 16 -11 21 0 33 8 7 14 17 14 22 0 17 -32
40 -56 40 -23 0 -24 -2 -22 -72z m58 47 c16 -19 -3 -45 -31 -45 -14 0 -19 7
-19 30 0 23 5 30 19 30 10 0 24 -7 31 -15z"/>
<path d="M1363 480 c0 -41 2 -58 4 -37 2 20 2 54 0 75 -2 20 -4 3 -4 -38z"/>
<path d="M1512 534 c-16 -11 -22 -25 -22 -53 0 -49 26 -74 72 -68 l33 4 -37 1
c-26 1 -41 8 -48 21 -29 55 5 108 62 97 23 -4 29 -3 18 4 -22 14 -52 12 -78
-6z"/>
<path d="M1720 530 c-43 -43 -11 -120 50 -120 38 0 70 32 70 70 0 38 -32 70
-70 70 -17 0 -39 -9 -50 -20z m92 -7 c38 -34 11 -103 -40 -103 -54 0 -81 62
-45 102 20 22 61 23 85 1z"/>
<path d="M1962 483 l-2 -73 38 2 c36 1 36 1 5 5 l-32 4 -4 67 -3 67 -2 -72z"/>
<path d="M2154 493 c-21 -65 -29 -99 -14 -65 13 32 75 32 83 0 4 -12 9 -20 11
-17 7 7 -45 139 -54 139 -3 0 -15 -26 -26 -57z m56 -29 c0 -2 -11 -4 -25 -4
-28 0 -30 6 -14 47 l11 28 14 -34 c8 -18 14 -35 14 -37z"/>
<path d="M770 340 c-52 -3 -89 -7 -82 -8 10 -2 12 -34 10 -146 l-3 -145 88 -3
87 -3 0 33 0 32 -55 0 c-55 0 -55 0 -55 31 0 31 0 31 50 27 l50 -3 0 35 0 35
-50 -3 -50 -4 0 32 0 32 55 -4 55 -3 0 38 c0 20 -1 36 -2 35 -2 -1 -46 -5 -98
-8z"/>
<path d="M1120 310 c0 -35 1 -36 35 -32 l35 4 0 -121 0 -121 35 0 35 0 0 121
0 121 35 -4 c34 -4 35 -3 35 32 l0 35 -105 0 -105 0 0 -35z"/>
<path d="M1710 340 c-52 -3 -89 -7 -82 -8 10 -2 12 -34 10 -146 l-3 -145 88
-3 87 -3 0 33 0 32 -55 0 c-55 0 -55 0 -55 31 0 31 0 31 50 27 l50 -3 0 35 0
35 -50 -3 -50 -4 0 32 0 32 55 -4 55 -3 0 38 c0 20 -1 36 -2 35 -2 -1 -46 -5
-98 -8z"/>
<path d="M954 329 c-23 -12 -44 -49 -44 -77 1 -31 25 -61 73 -92 33 -20 47
-36 45 -48 -4 -21 -58 -28 -88 -12 -18 10 -20 8 -20 -24 0 -32 2 -35 40 -41
47 -8 106 9 120 35 14 26 12 83 -2 102 -7 9 -32 28 -55 42 -57 35 -59 66 -5
66 21 0 43 -5 50 -12 9 -9 12 -3 12 28 l0 41 -52 1 c-29 1 -63 -4 -74 -9z"/>
<path d="M1368 190 l3 -150 32 0 32 0 -3 55 c-4 50 -2 55 16 55 25 0 61 -44
69 -82 5 -24 10 -28 40 -28 28 0 34 3 29 16 -3 9 -6 21 -6 28 0 7 -12 30 -26
52 -23 33 -24 39 -10 49 26 19 37 61 24 96 -14 40 -58 59 -140 59 l-63 0 3
-150z m130 81 c8 -4 12 -19 10 -32 -2 -20 -10 -25 -40 -27 -36 -3 -38 -2 -38
26 0 16 3 32 7 35 9 10 45 8 61 -2z"/>
<path d="M1858 333 c9 -3 12 -43 12 -148 l0 -144 85 -3 85 -3 0 33 0 32 -56 0
-55 0 3 120 3 120 -45 -1 c-25 0 -39 -3 -32 -6z"/>
<path d="M2150 326 c0 -8 -22 -73 -50 -146 -27 -73 -50 -134 -50 -136 0 -2 15
-4 34 -4 29 0 36 5 45 30 9 28 13 30 66 30 54 0 56 -1 62 -30 5 -27 9 -30 43
-30 l38 0 -50 133 c-27 72 -50 140 -51 150 -1 13 -11 17 -44 17 -30 0 -43 -4
-43 -14z m63 -121 l16 -45 -35 0 c-32 0 -35 2 -28 23 13 41 23 67 28 67 2 0
11 -20 19 -45z"/>
</g>
</svg>
