<?xml version="1.0" standalone="no"?>
<!DOCTYPE svg PUBLIC "-//W3C//DTD SVG 20010904//EN"
 "http://www.w3.org/TR/2001/REC-SVG-20010904/DTD/svg10.dtd">
<svg version="1.0" xmlns="http://www.w3.org/2000/svg"
 width="270.000000pt" height="50.000000pt" viewBox="0 0 270.000000 50.000000"
 preserveAspectRatio="xMidYMid meet">

<g transform="translate(0.000000,50.000000) scale(0.100000,-0.100000)"
fill="#000000" stroke="none">
<path d="M1298 373 c7 -3 16 -2 19 1 4 3 -2 6 -13 5 -11 0 -14 -3 -6 -6z"/>
<path d="M860 314 c-73 -20 -115 -50 -137 -98 -21 -47 -20 -72 4 -98 53 -61
194 -62 243 -4 17 21 30 20 30 -2 0 -53 67 -56 139 -7 l51 35 6 -26 c7 -27 44
-47 69 -38 19 8 20 24 0 24 -23 0 -36 36 -29 78 5 35 4 40 -17 45 -74 20 -167
-1 -189 -43 -16 -30 -104 -71 -158 -73 -83 -3 -140 63 -99 115 17 22 78 58
100 58 9 0 26 -5 36 -12 25 -15 53 6 49 36 -4 27 -28 29 -98 10z m307 -140 c5
-16 -48 -53 -86 -60 -26 -6 -31 -3 -31 13 0 20 23 46 50 56 23 9 63 3 67 -9z"/>
<path d="M2504 283 c-8 -21 -18 -50 -21 -65 -6 -33 -3 -32 -39 -13 -34 17 -87
20 -115 5 -40 -22 -60 -103 -32 -131 20 -20 71 -12 122 20 59 36 61 36 61 17
0 -20 39 -46 57 -39 11 5 10 10 -6 27 -23 24 -21 69 5 139 8 20 14 46 14 57 0
33 -29 22 -46 -17z m-79 -110 c16 -15 14 -18 -30 -41 -51 -26 -72 -20 -60 18
12 37 63 50 90 23z"/>
<path d="M1666 271 c-30 -47 -33 -49 -82 -57 -52 -8 -67 -21 -53 -45 7 -14 16
-18 36 -13 l25 7 -17 -27 c-17 -25 -17 -27 0 -46 14 -16 31 -20 79 -20 66 0
131 15 142 31 4 7 -1 9 -14 5 -38 -13 -125 -14 -149 -3 -28 13 -29 21 -2 58
20 28 22 29 115 29 52 0 94 4 94 9 0 5 -36 12 -80 16 l-80 7 25 30 c29 34 31
44 9 52 -23 9 -22 9 -48 -33z"/>
<path d="M2196 301 c-6 -9 -25 -118 -33 -189 -5 -38 -3 -42 17 -42 15 0 20 5
17 14 -3 8 8 56 24 107 16 51 27 99 25 106 -6 15 -42 18 -50 4z"/>
<path d="M2620 285 c0 -16 38 -35 67 -35 13 0 12 5 -7 25 -26 28 -60 33 -60
10z"/>
<path d="M1328 216 c-38 -19 -32 -35 24 -60 29 -13 62 -27 73 -31 20 -7 19 -7
-2 -15 -12 -5 -36 -5 -55 1 -44 12 -48 12 -48 -6 0 -24 39 -38 93 -32 54 7 77
21 77 47 0 16 -22 29 -77 45 -34 10 -27 25 10 23 26 -3 32 1 32 17 0 17 -7 20
-53 21 -29 0 -62 -4 -74 -10z"/>
<path d="M1958 216 c-64 -15 -83 -27 -104 -68 -13 -25 -13 -32 -2 -46 22 -28
42 -41 58 -37 8 2 32 6 53 9 42 7 127 47 146 69 15 19 4 65 -17 71 -46 13 -82
13 -134 2z m116 -46 c14 -14 0 -25 -61 -44 -63 -21 -107 -18 -111 7 -3 14 4
17 32 17 29 0 36 4 36 19 0 11 8 21 18 23 21 5 72 -8 86 -22z"/>
<path d="M2623 178 c-5 -7 -15 -30 -22 -52 -11 -33 -11 -40 3 -54 14 -14 16
-14 21 4 4 10 15 35 25 56 13 26 15 39 7 47 -14 14 -22 14 -34 -1z"/>
<path d="M360 125 c-37 -39 -104 -85 -122 -85 -17 0 -17 -2 -5 -14 17 -17 95
-6 108 15 5 8 9 11 9 7 0 -4 15 6 32 23 18 16 36 29 41 29 4 0 5 5 2 10 -3 6
-15 10 -25 10 -10 0 -20 5 -22 10 -2 6 -10 4 -18 -5z"/>
</g>
</svg>
