<?xml version="1.0" standalone="no"?>
<!DOCTYPE svg PUBLIC "-//W3C//DTD SVG 20010904//EN"
 "http://www.w3.org/TR/2001/REC-SVG-20010904/DTD/svg10.dtd">
<svg version="1.0" xmlns="http://www.w3.org/2000/svg"
 width="300.000000pt" height="70.000000pt" viewBox="0 0 300.000000 70.000000"
 preserveAspectRatio="xMidYMid meet">

<g transform="translate(0.000000,70.000000) scale(0.100000,-0.100000)"
fill="#000000" stroke="none">
<path d="M1290 300 c0 -19 7 -20 145 -20 138 0 145 1 145 20 0 19 -7 20 -145
20 -138 0 -145 -1 -145 -20z"/>
<path d="M1640 160 l0 -160 40 0 40 0 0 55 0 55 43 0 c58 0 89 19 106 63 11
30 12 45 2 76 -15 53 -56 71 -155 71 l-76 0 0 -160z m131 90 c24 -13 26 -65 3
-74 -42 -16 -54 -8 -54 39 0 48 11 56 51 35z"/>
<path d="M1942 218 c-48 -123 -82 -212 -82 -215 0 -2 18 -3 40 -3 34 0 42 4
55 30 14 28 19 30 71 30 53 0 56 -2 67 -30 10 -27 16 -30 54 -30 l43 0 -19 48
c-10 26 -37 98 -61 160 l-43 112 -43 0 -42 0 -40 -102z m97 -30 c25 -68 25
-68 -14 -68 -33 0 -36 2 -29 23 13 44 24 67 29 67 3 0 9 -10 14 -22z"/>
<path d="M2220 160 l0 -160 40 0 40 0 0 54 0 54 56 4 c65 6 92 27 101 81 8 51
-13 96 -53 113 -19 8 -67 14 -109 14 l-75 0 0 -160z m140 80 c30 -30 10 -70
-37 -70 -20 0 -23 5 -23 38 0 57 23 69 60 32z"/>
<path d="M2500 160 l0 -160 90 0 90 0 0 35 0 35 -50 0 c-49 0 -50 1 -50 30 0
29 2 30 45 30 43 0 45 1 45 30 0 29 -2 30 -45 30 -43 0 -45 1 -45 30 0 29 1
30 50 30 l50 0 0 35 0 35 -90 0 -90 0 0 -160z"/>
<path d="M2730 160 l0 -160 40 0 39 0 3 62 3 63 40 -62 c40 -63 40 -63 87 -63
27 0 48 2 48 4 0 2 -20 30 -45 62 -25 31 -45 60 -45 63 0 4 10 11 22 16 12 6
29 26 36 46 12 33 12 41 -3 72 -21 44 -54 57 -151 57 l-74 0 0 -160z m134 87
c11 -8 17 -23 14 -38 -2 -19 -10 -25 -35 -27 -31 -3 -33 -2 -33 31 0 49 18 60
54 34z"/>
<path d="M1310 215 c0 -13 22 -15 135 -15 113 0 135 2 135 15 0 13 -22 15
-135 15 -113 0 -135 -2 -135 -15z"/>
<path d="M1360 130 c0 -19 7 -20 110 -20 103 0 110 1 110 20 0 19 -7 20 -110
20 -103 0 -110 -1 -110 -20z"/>
<path d="M1450 50 c0 -18 7 -20 65 -20 58 0 65 2 65 20 0 18 -7 20 -65 20 -58
0 -65 -2 -65 -20z"/>
</g>
</svg>
