<?xml version="1.0" standalone="no"?>
<!DOCTYPE svg PUBLIC "-//W3C//DTD SVG 20010904//EN"
 "http://www.w3.org/TR/2001/REC-SVG-20010904/DTD/svg10.dtd">
<svg version="1.0" xmlns="http://www.w3.org/2000/svg"
 width="210.000000pt" height="104.000000pt" viewBox="0 0 210.000000 104.000000"
 preserveAspectRatio="xMidYMid meet">

<g transform="translate(0.000000,104.000000) scale(0.100000,-0.100000)"
fill="#000000" stroke="none">
<path d="M871 970 c-19 -16 -51 -32 -75 -35 -91 -15 -186 -78 -223 -148 -18
-36 -10 -46 17 -22 23 21 23 20 20 -57 -1 -31 1 -66 5 -78 6 -19 11 -17 68 32
204 174 384 340 252 232 -25 -20 -47 -35 -50 -33 -2 3 19 31 47 63 41 46 48
60 37 67 -26 16 -64 8 -98 -21z"/>
<path d="M995 907 c-33 -27 -123 -106 -200 -176 -78 -69 -158 -139 -178 -156
l-37 -30 24 -30 24 -30 34 31 c18 18 49 40 68 49 26 14 472 287 488 301 6 4
-26 60 -42 73 -13 11 -22 8 -53 -18 -41 -34 -66 -42 -40 -13 14 16 13 18 -7
33 -21 16 -24 15 -81 -34z"/>
<path d="M1155 764 c-16 -14 -39 -29 -51 -34 -17 -7 -174 -103 -434 -266 l-75
-46 35 -29 c19 -16 39 -29 44 -29 6 0 24 13 41 29 30 29 146 116 428 320 36
26 57 49 57 61 0 26 -9 25 -45 -6z"/>
<path d="M1084 588 c-194 -165 -218 -188 -198 -188 11 0 35 10 54 22 19 11 61
29 93 39 69 21 150 71 177 109 24 34 25 41 4 33 -13 -5 -15 1 -9 41 4 25 5 46
3 46 -2 0 -58 -46 -124 -102z"/>
<path d="M156 313 c-22 -44 -116 -252 -116 -258 0 -3 19 -5 43 -5 43 0 43 0
72 60 23 48 33 60 50 58 24 -4 25 -27 1 -81 l-16 -37 45 0 c42 0 46 2 60 38 9
20 14 47 12 59 -3 14 2 23 13 26 18 5 70 107 70 137 0 22 -37 30 -141 30 -76
0 -79 -1 -93 -27z m119 -43 c10 -16 -14 -50 -35 -50 -20 0 -25 15 -14 44 7 18
39 22 49 6z"/>
<path d="M463 313 c-6 -16 -34 -78 -62 -140 -28 -62 -51 -115 -51 -118 0 -3
38 -5 84 -5 67 0 85 3 90 16 10 27 7 34 -18 34 -32 0 -39 12 -26 44 8 22 16
26 48 26 32 0 41 5 50 25 10 23 9 25 -11 25 -34 0 -46 12 -36 38 7 18 16 22
47 22 32 0 41 5 50 25 7 14 12 28 12 30 0 3 -37 5 -83 5 -81 0 -83 -1 -94 -27z"/>
<path d="M701 318 c-5 -12 -34 -76 -65 -141 -31 -65 -56 -120 -56 -123 0 -2
20 -4 45 -4 44 0 45 1 70 50 l25 49 72 3 73 3 38 79 c28 58 36 81 27 90 -6 6
-56 12 -115 14 -102 4 -105 3 -114 -20z m115 -52 c9 -24 -15 -56 -41 -56 -29
0 -30 2 -10 40 16 32 42 39 51 16z"/>
<path d="M1012 328 c-6 -7 -21 -38 -35 -68 -14 -30 -41 -90 -61 -132 l-35 -78
47 0 47 0 63 138 c34 75 62 140 62 145 0 12 -77 8 -88 -5z"/>
<path d="M1151 298 c-10 -24 -31 -70 -46 -103 -15 -33 -35 -79 -46 -102 l-18
-43 45 0 45 0 45 97 c59 129 58 128 83 131 31 5 27 -15 -24 -125 -25 -53 -45
-98 -45 -100 0 -2 21 -3 47 -1 l47 3 57 125 c31 69 54 130 52 137 -7 17 -40
23 -136 23 l-88 0 -18 -42z"/>
<path d="M1458 293 c-11 -27 -40 -90 -64 -142 -24 -51 -44 -95 -44 -97 0 -2
20 -4 45 -4 45 0 45 0 75 60 25 49 35 60 55 60 14 0 25 -2 25 -4 0 -2 -11 -28
-25 -58 l-25 -53 42 -3 c22 -2 44 0 48 5 9 10 130 268 130 277 0 3 -20 6 -45
6 -44 0 -44 0 -72 -57 -20 -42 -34 -59 -50 -61 -28 -4 -29 9 -3 67 11 24 20
45 20 47 0 2 -21 4 -46 4 -44 0 -45 -1 -66 -47z"/>
<path d="M1820 332 c-32 -7 -37 -13 -94 -135 -50 -107 -58 -130 -46 -137 8 -6
56 -10 106 -10 73 0 96 4 112 18 27 24 122 236 112 252 -9 15 -135 22 -190 12z
m75 -62 c4 -6 -9 -44 -29 -85 -27 -57 -40 -75 -56 -75 -26 0 -26 6 11 86 35
79 57 101 74 74z"/>
</g>
</svg>
